<svg xmlns="http://www.w3.org/2000/svg" width="865.76" height="682.89" viewBox="0 0 865.76 682.89">
  <path d="M516.83,471.43a.5.5,0,0,1-.5-.47l-2.42-49a18.46,18.46,0,0,1,1.11-7.14c4.39-12.2,7.14-28.34,7.17-28.5a.5.5,0,1,1,1,.17c0,.16-2.79,16.39-7.21,28.66a17.35,17.35,0,0,0-1.05,6.77l2.42,49a.5.5,0,0,1-.48.52Z" fill="#251860"></path>
  <path d="M521.38,450.2h-.07c-13.68-1.83-19.66-9.77-22.27-16.1-4.24-10.32-2.09-22.58,2.45-28.46l.11-.15a103.44,103.44,0,0,0,11.74-19,.52.52,0,0,1,.66-.26.51.51,0,0,1,.26.66,104.57,104.57,0,0,1-11.87,19.24l-.11.15c-4.36,5.66-6.42,17.48-2.31,27.47,2.51,6.09,8.27,13.72,21.48,15.49a.5.5,0,0,1-.07,1Z" fill="#251860"></path>
  <path d="M519.65,457.78a.41.41,0,0,1-.16,0,25.75,25.75,0,0,1-9-4.83,11.81,11.81,0,0,1-4-8.74l-.82-57.09a.5.5,0,0,1,.5-.5h0a.49.49,0,0,1,.5.49l.82,57.09a10.77,10.77,0,0,0,3.66,8,24.75,24.75,0,0,0,8.61,4.64.5.5,0,0,1-.15,1Z" fill="#251860"></path>
  <rect x="284.56" y="444.96" width="11.98" height="124.16" fill="#aac8f9"></rect>
  <path d="M297,569.62h-13V444.46h13Zm-12-1h11V445.46h-11Z" fill="#251860"></path>
  <path d="M444.46,572.76l-2.61,34.35s-3.93,19,25.84,18.66l36.5,3.53a11.52,11.52,0,0,0,12.08-15h0a11.58,11.58,0,0,0-6.84-7.22c-5.51-2.14-15.27-6.74-28-16l-3.6-16.69Z" fill="#251860"></path>
  <path d="M477.84,574.39l3.6,16.69-2.87-.55a9.23,9.23,0,0,0-7.26,1.69l-11.14,8.35L451,581.27Z" fill="#fff"></path>
  <path d="M460,601.34l-9.68-20.41,27.92-7.15,3.87,17.93-3.62-.68a8.72,8.72,0,0,0-6.86,1.59Zm-8.26-19.74,8.64,18.2,10.65-8a9.73,9.73,0,0,1,7.65-1.78l2.13.41L477.46,575Z" fill="#251860"></path>
  <path d="M474.57,603a.52.52,0,0,1-.29-.09.49.49,0,0,1-.12-.69c.22-.32,5.48-7.74,13.82-7.74a.5.5,0,0,1,.5.5.5.5,0,0,1-.5.5c-7.81,0-13,7.24-13,7.31A.51.51,0,0,1,474.57,603Z" fill="#fff"></path>
  <path d="M485.36,611.21a.47.47,0,0,1-.27-.08.5.5,0,0,1-.14-.69c.2-.32,5.14-7.74,13.79-8.4a.49.49,0,0,1,.54.46.5.5,0,0,1-.46.53c-8.17.63-13,7.88-13,8A.5.5,0,0,1,485.36,611.21Z" fill="#fff"></path>
  <path d="M354.87,609.18c-.2,0-.38,0-.57,0l-12.05-14.42a10,10,0,0,0-4.9-3.19l-11-3.15s-23.95-6-27.83-8.07h-16L246.34,591.2a8.13,8.13,0,0,0-3.78,2.41l-15.29,17.17a9.39,9.39,0,0,0-7.71,9.25,9.49,9.49,0,0,0,9.09,9.37,9.38,9.38,0,0,0,5.27-17.33l11.71-13.14a8.19,8.19,0,0,1,4.07-2.49l33.2-8.6a8.37,8.37,0,0,1,7.91,2.07l11.06,10.62L326.71,595l6.93.58,14.75,16.17a9.3,9.3,0,0,0-2.91,6.8,9.48,9.48,0,0,0,9.1,9.36,9.39,9.39,0,1,0,.29-18.77Z" fill="#aac8f9"></path>
  <path d="M229,629.9h-.32a10,10,0,0,1-9.57-9.87,9.85,9.85,0,0,1,7.95-9.7l15.18-17.05a8.64,8.64,0,0,1,4-2.56l36.36-10.84h16.1l.11.06c3.79,2,27.48,8,27.72,8l11,3.15a10.38,10.38,0,0,1,5.15,3.35l11.89,14.23.35,0a9.9,9.9,0,0,1,9.88,9.89,9.89,9.89,0,0,1-10.18,9.88,10,10,0,0,1-9.59-9.86,9.78,9.78,0,0,1,2.72-6.82L333.41,596.1l-6.66-.55-25,5.53-11.26-10.81a7.8,7.8,0,0,0-7.43-1.94l-33.2,8.59a7.75,7.75,0,0,0-3.83,2.34L234.68,612A9.88,9.88,0,0,1,229,629.9Zm53.68-49-36.14,10.8a7.77,7.77,0,0,0-3.56,2.26l-15.41,17.31-.17,0a8.86,8.86,0,0,0-7.29,8.75,8.88,8.88,0,0,0,15.07,6.36,8.88,8.88,0,0,0-1.47-13.9l-.5-.31,12.1-13.59a8.72,8.72,0,0,1,4.32-2.64l33.2-8.59a8.82,8.82,0,0,1,8.38,2.19L302,600l24.65-5.44,7.2.6.13.14,15.07,16.53-.35.34a8.78,8.78,0,0,0-2.75,6.43,9,9,0,0,0,8.62,8.87,8.89,8.89,0,1,0,.27-17.77l-.4,0-.4,0-12.21-14.62a9.4,9.4,0,0,0-4.65-3l-11-3.15c-1-.24-23.61-5.91-27.82-8Z" fill="#251860"></path>
  <rect x="282.56" y="560.77" width="15.97" height="19.6" fill="#d2e1f9"></rect>
  <path d="M299,580.88h-17v-20.6h17Zm-16-1h15v-18.6h-15Z" fill="#251860"></path>
  <path d="M303.5,577.27s-11.43,23.38-13.46,46.5c0,0-3.81,15.49,10.41,15l34.63,1.46a3.94,3.94,0,0,0,4.09-3.48c.16-1.53-.19-3.7-1.59-6.78a11.88,11.88,0,0,0-1.46-2.38c-2-2.58-8.07-12.39-9.75-39.13Z" fill="#251860"></path>
  <path d="M303.5,577.27s-5.59,28.46,10.16,20.33c0,0,12.71,5.59,12.71-9.15L308.84,566.6Z" fill="#fff"></path>
  <path d="M308.7,599.56a5.31,5.31,0,0,1-3.24-1c-5.72-4.3-2.58-20.66-2.45-21.35l0-.13,5.69-11.37,18.13,22.6v.17c0,4.68-1.26,7.88-3.75,9.5-3.55,2.31-8.34.63-9.43.2A11.42,11.42,0,0,1,308.7,599.56ZM304,577.43c-.21,1.14-3,16.5,2.09,20.3,1.69,1.27,4.16,1.07,7.36-.58l.22-.11.22.1c.05,0,5.22,2.24,8.7,0,2.16-1.41,3.27-4.26,3.3-8.48l-16.93-21.11Z" fill="#251860"></path>
  <path d="M595.92,259.74H407.27a7.63,7.63,0,0,1-7.54-8.79l18.34-118.83a7.61,7.61,0,0,1,7.53-6.46H614.25a7.63,7.63,0,0,1,7.54,8.79L603.45,253.28A7.61,7.61,0,0,1,595.92,259.74Z" fill="#251860"></path>
  <path d="M432.33,421.74,430,438.38,305.92,440a50.86,50.86,0,0,1-24.64-6l-32.23-17.2c-21.89-11.66-27.14-30-27.14-30l-34.34-141a49.77,49.77,0,0,1-1.46-12.28,97,97,0,0,1,12.64-46.49,44.8,44.8,0,0,0,5.19-14.12l6.59-35.3a45.42,45.42,0,0,1,1.81-7.33c6.6-19.41,23.58-18.94,23.58-18.94H268a22.66,22.66,0,0,1,15,5.56c6.26,5.52,13.56,16.46,17.4,38.21Z" fill="#aac8f9"></path>
  <path d="M305.24,440.46a51.61,51.61,0,0,1-24.2-6l-32.22-17.2C227,405.58,221.48,387,221.43,386.86L187.09,245.79a49.92,49.92,0,0,1-1.48-12.39,97.64,97.64,0,0,1,12.71-46.74,44.22,44.22,0,0,0,5.12-14l6.6-35.3a46.3,46.3,0,0,1,1.82-7.4c6.65-19.54,23.94-19.27,24.07-19.28H268a23.16,23.16,0,0,1,15.3,5.68c5.82,5.13,13.58,16,17.55,38.43l132,266.82-2.42,17.22H430l-124.09,1.57ZM235.86,111.72c-1.08,0-16.83.34-23.05,18.6a45.5,45.5,0,0,0-1.78,7.25l-6.6,35.31a45.18,45.18,0,0,1-5.24,14.27,96.61,96.61,0,0,0-12.58,46.26,49,49,0,0,0,1.45,12.15l34.33,141c.05.16,5.46,18.31,26.9,29.73l32.22,17.19a50.53,50.53,0,0,0,23.73,5.94h.67l123.65-1.57,2.26-16.06L299.93,155.15v-.07c-3.92-22.24-11.54-32.9-17.24-37.92A22.12,22.12,0,0,0,268,111.72H235.86Z" fill="#251860"></path>
  <path d="M430,438.38c-4.38,9.92-18.39,11.38-18.39,11.38H306.55c-16.64.87-32.4-5-32.4-5L238,425.24c-14.41-7.75-21.58-21.92-24.19-28.28-.82-2-1.19-3.24-1.19-3.24L178.72,248.39c-.17-1-.32-1.9-.43-2.84a67.62,67.62,0,0,1,2.86-28.89A52,52,0,0,1,188,202.93a52.93,52.93,0,0,0,3.87-6.72,71.31,71.31,0,0,0,6.19-19.12l4.3-23.85c2.62-19,9.92-23.35,9.92-23.35l.06.27a45.42,45.42,0,0,0-1.81,7.33l-6.59,35.3a44.8,44.8,0,0,1-5.19,14.12,97,97,0,0,0-12.64,46.49,46.8,46.8,0,0,0,.52,7.4c.23,1.64.55,3.27.94,4.88l34.34,141a41.39,41.39,0,0,0,4.81,9.82,59.43,59.43,0,0,0,22.33,20.23L281.28,434a50.86,50.86,0,0,0,24.64,6Z" fill="#251860"></path>
  <g opacity="0.24">
    <path d="M235,364.33a20.65,20.65,0,0,1-.54,11.93l-7,19.79a4.16,4.16,0,0,1-.74.49c-1.52.85-5.56,2.34-12.95.42-.82-2-1.19-3.24-1.19-3.24L178.72,248.39c-.17-1-.32-1.9-.43-2.84a10.1,10.1,0,0,1,8.34-4.75h.26l14.72,7a10,10,0,0,1,5.42,6.6Z"></path>
  </g>
  <path d="M420.56,425.77,375.1,409.16l-34.36-9.82,2.94-26.18,120.74,12.76s10.15,5.57,12.76,59.56l.95,127.15a12.34,12.34,0,0,1-5.61,10.55c-4.2,2.68-10.71,4.39-19.43-.35a16.17,16.17,0,0,1-8.23-12.14l-17.95-137A9.78,9.78,0,0,0,420.56,425.77Z" fill="#4458dc" data-secondary="true"></path>
  <path d="M463.62,586.3a22.5,22.5,0,0,1-10.77-3,16.71,16.71,0,0,1-8.49-12.52l-17.94-137a9.29,9.29,0,0,0-6-7.53l-45.46-16.61L340.2,399.7l3-27.09.5.06,120.84,12.77.08.05c.43.23,10.42,6.31,13,60l.95,127.18a13,13,0,0,1-5.84,11A17,17,0,0,1,463.62,586.3Zm-42.89-161a10.27,10.27,0,0,1,6.68,8.34l17.94,137a15.72,15.72,0,0,0,8,11.77c8.69,4.73,15.09,2.81,18.92.37a11.92,11.92,0,0,0,5.38-10.12l-.95-127.16c-2.44-50.34-11.54-58.4-12.43-59.07l-120.12-12.7L341.28,399l34,9.7Z" fill="#251860"></path>
  <path d="M244.45,333.41s-20.28,65.36,21.73,78.28c21.31,6.56,50,8.61,50,8.61l-12.44,154a10.56,10.56,0,0,0,7.31,10.9l9.77,3.11A10.54,10.54,0,0,0,334.21,581L376,425.22s7.79-23-20.08-39.35c-2.26-1.33-46.32-39.35-46.32-39.35l-41.8-22.95Z" fill="#4458dc" data-secondary="true"></path>
  <path d="M324,589.28a11.23,11.23,0,0,1-3.37-.53l-9.77-3.12a11,11,0,0,1-7.66-11.41l12.4-153.46c-3.93-.31-30-2.56-49.61-8.59A34.37,34.37,0,0,1,245,394.9c-12.52-23.72-1.1-61.27-1-61.64l.07-.22.21-.1L267.84,323,310,346.14c15.23,13.14,44.48,38.26,46.24,39.3,27.9,16.41,20.39,39.71,20.31,39.94L334.69,581.09A11.06,11.06,0,0,1,324,589.28ZM244.86,333.77c-.92,3.13-10.85,38.26,1,60.67a33.45,33.45,0,0,0,20.48,16.77c21,6.47,49.61,8.57,49.9,8.59l.5,0,0,.5-12.44,154a10,10,0,0,0,7,10.38L321,587.8a10.06,10.06,0,0,0,12.76-7l41.81-155.74c.09-.26,7.32-22.8-19.85-38.79-2.26-1.33-44.05-37.38-46.35-39.37l-41.55-22.81Z" fill="#251860"></path>
  <path d="M369.09,333.63a7.35,7.35,0,0,1-5.71,9.4c-53.33,9.77-97.08-.74-114-6a9.38,9.38,0,0,1-6.52-10.26c3.42-24.79,13.92-102.38,14.56-123.42.76-25.16,8.38-28.21,8.38-28.21l77.37,1.15a44.06,44.06,0,0,1,5.8,1.52C374,186.27,369,212.53,369,212.53l-6.86,54.88a114,114,0,0,0-.79,27.88A185.33,185.33,0,0,0,369.09,333.63Z" fill="#000" data-primary="true"></path>
  <path d="M319,347.52a243.27,243.27,0,0,1-69.85-10,9.85,9.85,0,0,1-6.86-10.81c3.25-23.61,13.91-102.31,14.55-123.37.76-25.19,8.37-28.52,8.7-28.65l.09,0h.1l77.37,1.15a43.54,43.54,0,0,1,5.95,1.55c25.22,8.46,20.51,35,20.46,35.25l-6.86,54.84a112.75,112.75,0,0,0-.79,27.78,183.19,183.19,0,0,0,7.68,38.23h0a7.84,7.84,0,0,1-6.1,10A246.9,246.9,0,0,1,319,347.52ZM265.86,175.69c-.76.42-7.29,4.67-8,27.71-.64,21.11-11.31,99.85-14.56,123.48a8.86,8.86,0,0,0,6.17,9.72c16.41,5,60.37,15.72,113.81,5.94a6.85,6.85,0,0,0,5.32-8.76,184.66,184.66,0,0,1-7.72-38.45,114,114,0,0,1,.8-28l6.86-54.86c.05-.29,4.6-26-19.79-34.15a44,44,0,0,0-5.74-1.5Z" fill="#251860"></path>
  <path d="M251.16,270.59l23.71-63.76a27.14,27.14,0,0,0,1.84-15.61c-1.18-6.24-4.87-13.31-14.9-16.66,0,0-21.82-6.09-31.26,27.08l-24.47,80.65s-6.49,21.91,15,26.17l87.58,6.09-.59-22.82L255,278.64A5.89,5.89,0,0,1,251.16,270.59Z" fill="#000" data-primary="true"></path>
  <path d="M309.22,315.09,221.08,309c-6.4-1.26-11-4.16-13.67-8.61-4.78-7.9-1.93-17.78-1.81-18.2l24.48-80.65c9.46-33.26,31.64-27.49,31.87-27.42,10.61,3.54,14.15,11.22,15.25,17a27.53,27.53,0,0,1-1.87,15.9l-23.71,63.76a5.53,5.53,0,0,0,.14,4.62,5.2,5.2,0,0,0,3.39,2.74l53.45,13.18ZM257.58,174.57c-6.66,0-19.74,3.28-26.54,27.21l-24.48,80.66c0,.09-2.84,9.88,1.71,17.4,2.54,4.2,6.89,6.93,12.94,8.13l87,6-.57-21.89-52.71-13a6.16,6.16,0,0,1-4-3.27,6.43,6.43,0,0,1-.17-5.44l23.7-63.75a26.62,26.62,0,0,0,1.82-15.35c-1.53-8.08-6.43-13.56-14.56-16.28A16.38,16.38,0,0,0,257.58,174.57Z" fill="#808080"></path>
  <path d="M327.93,196.82s0,15.39-2.19,16.49h0a45.25,45.25,0,0,0-7.13-9.83S325.46,202.24,327.93,196.82Z" fill="#fff"></path>
  <path d="M325.77,213.85l-.42-.13-.1-.21a44.69,44.69,0,0,0-7.05-9.7l-.61-.67.89-.16c.07,0,6.67-1.26,9-6.37l.95-2.1v2.31c0,3.68-.17,15.79-2.46,16.93Zm-6.26-10.08a48.14,48.14,0,0,1,6.33,8.71c.91-1.62,1.47-7.67,1.57-13.78C325.08,202,321.22,203.31,319.51,203.77Z" fill="#251860"></path>
  <path d="M203.53,219.12a.51.51,0,0,1-.47-.32.51.51,0,0,1,.25-.64c1.05-.7,10.81-13,26.14-33.08a16.29,16.29,0,0,0,3.35-9c.4-6.69,1.18-19.55,1.94-30.64,1.42-20.71,1.69-20.71,2.35-20.71a.5.5,0,0,1,.5.5.53.53,0,0,1-.12.32c-.52,1.63-1.92,20.92-3.67,50.59a17.29,17.29,0,0,1-3.55,9.55c-16.68,21.78-25.61,33-26.54,33.39A.58.58,0,0,1,203.53,219.12Z" fill="#251860"></path>
  <path d="M305.38,196.94a.59.59,0,0,1-.26-.07L284.4,184.61a.49.49,0,0,1-.23-.33l-12.55-58.36a.5.5,0,0,1,.38-.6.51.51,0,0,1,.6.38l12.5,58.16L305.63,196a.5.5,0,0,1-.25.93Z" fill="#251860"></path>
  <path d="M391.64,276.66l-10,27.77s-13.37,2.41-20.22-9.14a114,114,0,0,1,.79-27.88L369,212.53s5-26.26-20.12-34.68v-.13s18.23,0,24.11,24.5Z" fill="#000" data-primary="true"></path>
  <path d="M378.75,305.12c-4.43,0-12.83-1.21-17.79-9.58l-.07-.21a114,114,0,0,1,.8-28l6.86-54.86c.05-.29,4.6-26-19.79-34.15l-.34-.11v-1h.5c.19,0,18.69.29,24.6,24.89l18.64,74.58L382,304.87l-.29.05A18.59,18.59,0,0,1,378.75,305.12Zm-16.87-10c6.06,10.1,17.43,9.1,19.37,8.85l9.87-27.35-18.57-74.28c-4-16.82-14-21.91-19.65-23.46,20.9,9.73,16.68,33.48,16.64,33.74l-6.86,54.84A112.73,112.73,0,0,0,361.88,295.13Z" fill="#808080"></path>
  <polygon points="685.73 329.82 685.73 385.93 463.66 386.97 463.66 329.22 685.73 329.82" fill="#d2e1f9"></polygon>
  <path d="M463.16,387.47V328.71h.5l222.57.6v57.1h-.5Zm1-57.75v56.75l221.07-1V330.32Z" fill="#251860"></path>
  <rect x="509.35" y="538.28" width="71.11" height="101.92" fill="#aac8f9"></rect>
  <path d="M581,640.7H508.85V537.78H581Zm-71.12-1H580V538.78H509.85Z" fill="#251860"></path>
  <rect x="580.69" y="538.28" width="166.49" height="101.92" fill="#d2e1f9"></rect>
  <path d="M747.69,640.7H580.19V537.78h167.5Zm-166.5-1h165.5V538.78H581.19Z" fill="#251860"></path>
  <path d="M713.53,597.5H614.71a.5.5,0,0,1-.5-.5V582a.5.5,0,0,1,.5-.5h98.82a.5.5,0,0,1,.5.5v15A.5.5,0,0,1,713.53,597.5Zm-98.32-1H713v-14H615.21Z" fill="#251860"></path>
  <path d="M746.47,367.48V511.42A17.55,17.55,0,0,1,728.92,529H584.25a10.24,10.24,0,0,1-2.63-.35,9.92,9.92,0,0,1-7.11-11.49L604,367.63a21,21,0,0,1,20.64-17h105A16.83,16.83,0,0,1,746.47,367.48Z" fill="#251860"></path>
  <path d="M624.63,350.66a21,21,0,0,0-20.64,17l-29.48,149.5a9.92,9.92,0,0,0,7.11,11.49H516.55a9.54,9.54,0,0,1-9.33-11.52l1.43-6.8L519,461.41,540,362a14.27,14.27,0,0,1,14-11.33Z" fill="#854fee" data-primary="true"></path>
  <path d="M585.37,529.12H516.55A10,10,0,0,1,506.73,517L539.5,361.89A14.83,14.83,0,0,1,554,350.16h70.68v1a20.59,20.59,0,0,0-20.15,16.57L575,517.23a9.43,9.43,0,0,0,6.75,10.9ZM554,351.16a13.83,13.83,0,0,0-13.47,10.93L507.7,517.2a9.06,9.06,0,0,0,8.85,10.92H579.1A10.48,10.48,0,0,1,574,517l29.48-149.5a21.6,21.6,0,0,1,14.66-16.38Z" fill="#251860"></path>
  <g opacity="0.2">
    <path d="M680.23,363.55v65.16h43.68v88.44H590.47a3,3,0,0,1-2.92-3.61L619.1,366.47a3.68,3.68,0,0,1,3.6-2.92Z"></path>
  </g>
  <g opacity="0.2">
    <path d="M597.88,517.29h-.1a.51.51,0,0,1-.39-.59l16-82.1a7.91,7.91,0,0,1,7.75-6.39h59.07a.5.5,0,0,1,.5.5.5.5,0,0,1-.5.5H621.16a6.92,6.92,0,0,0-6.77,5.58l-16,82.1A.49.49,0,0,1,597.88,517.29Z"></path>
  </g>
  <path d="M708.16,455.66h-63a1.53,1.53,0,0,1,0-3.05h63a1.53,1.53,0,0,1,0,3.05Z" fill="#fff"></path>
  <path d="M708.16,471.77h-63a1.53,1.53,0,0,1,0-3h63a1.53,1.53,0,0,1,0,3Z" fill="#fff"></path>
  <circle cx="713.89" cy="382.17" r="6.44" fill="#854fee" data-primary="true"></circle>
  <path d="M713.89,389.11a6.95,6.95,0,1,1,6.94-6.94A7,7,0,0,1,713.89,389.11Zm0-12.89a5.95,5.95,0,1,0,5.94,5.95A6,6,0,0,0,713.89,376.22Z" fill="#251860"></path>
  <circle cx="566.01" cy="381.45" r="6.44" fill="#251860"></circle>
  <path d="M541.57,403.24c-.91,3.6-4.1,16.35-5.21,20.82a1.26,1.26,0,0,0,1.23,1.57h40.89a1.26,1.26,0,0,0,1.24-1l4.54-21.38a1.27,1.27,0,0,0-1.26-1.53l-40.22.57A1.27,1.27,0,0,0,541.57,403.24Z" fill="#251860"></path>
  <path d="M574.31,410H547a.51.51,0,0,1-.5-.5.5.5,0,0,1,.5-.5h27.3a.5.5,0,0,1,.5.5A.51.51,0,0,1,574.31,410Z" fill="#fff"></path>
  <path d="M573.11,418H545.82a.5.5,0,0,1,0-1h27.29a.5.5,0,0,1,0,1Z" fill="#fff"></path>
  <path d="M555.29,528.73a.5.5,0,0,1-.37-.16l-.88-1a10.92,10.92,0,0,1-2.65-9.62l12.24-58.7a10.56,10.56,0,0,1,5.63-7.39l20.09-10.12a.5.5,0,0,1,.45.89l-20.09,10.12a9.59,9.59,0,0,0-5.11,6.71l-12.23,58.69a9.9,9.9,0,0,0,2.41,8.74l.88,1a.51.51,0,0,1,0,.71A.5.5,0,0,1,555.29,528.73Z" fill="#251860"></path>
  <path d="M528.65,528.93a.5.5,0,0,1-.44-.27L526,524.53a9.21,9.21,0,0,1-1-6.09l11.72-61.8a6,6,0,0,0-1.62-5.32L523.2,439.25a.5.5,0,0,1,0-.71.5.5,0,0,1,.71,0l11.91,12.08a7,7,0,0,1,1.89,6.2L526,518.62a8.19,8.19,0,0,0,.85,5.43l2.25,4.14a.5.5,0,0,1-.21.68A.46.46,0,0,1,528.65,528.93Z" fill="#251860"></path>
  <path d="M523.24,467.25l-8.33,40a2.79,2.79,0,0,1-2.15,2.15l-4.11.89L519,461.41l3.44,3.25A2.76,2.76,0,0,1,523.24,467.25Z" fill="#251860"></path>
  <path d="M601.14,259.74H412.5A7.63,7.63,0,0,1,405,251l18.33-118.83a7.63,7.63,0,0,1,7.54-6.46H619.47a7.63,7.63,0,0,1,7.54,8.79L608.68,253.28A7.62,7.62,0,0,1,601.14,259.74Z" fill="#4458dc" data-secondary="true"></path>
  <path d="M601.14,260.24H412.5a8.13,8.13,0,0,1-8-9.37L422.8,132a8.08,8.08,0,0,1,8-6.88H619.47a8.13,8.13,0,0,1,8,9.36L609.17,253.35A8.08,8.08,0,0,1,601.14,260.24ZM430.83,126.16a7.09,7.09,0,0,0-7,6L405.45,251a7.14,7.14,0,0,0,7.05,8.21H601.14a7.08,7.08,0,0,0,7-6l18.34-118.83a7.13,7.13,0,0,0-7-8.21Z" fill="#251860"></path>
  <path d="M547.1,319.38H524.18c8.23-3.7,5.76-14.39,5.76-14.39l-20.16-81.86,25.5.41L554.59,310A7.68,7.68,0,0,1,547.1,319.38Z" fill="#4458dc" data-secondary="true"></path>
  <path d="M547.1,319.88H521.85l2.12-1c7.77-3.49,5.5-13.72,5.48-13.82l-20.31-82.48,26.54.43.09.38,19.3,86.51a8.16,8.16,0,0,1-8,9.94Zm-21-1h21a7.17,7.17,0,0,0,7-8.73L534.88,224l-24.46-.4,20,81.23C530.45,305,532.54,314.44,526.09,318.88Z" fill="#251860"></path>
  <path d="M524.18,319.38l-74.86.41v-5.34l68.32-3a5.47,5.47,0,0,0,5.1-6.67l-10.08-45h-9l6.17-36.61L529.94,305S532.41,315.68,524.18,319.38Z" fill="#251860"></path>
  <rect x="335.9" y="312.76" width="92.46" height="6.31" rx="3.1" fill="#251860"></rect>
  <path d="M294.93,148.8l-1.48,32s15.51,11.33,25.12,22.66c0,0,6.4-1.48,9.36-6.65l.24-17.24L305,146.09Z" fill="#f9c7a5"></path>
  <path d="M318.38,204l-.19-.24c-9.46-11.15-24.88-22.46-25-22.57l-.21-.16,1.5-32.65,10.79-2.89,23.44,33.91L328.42,197l-.06.11c-3,5.3-9.41,6.82-9.68,6.89ZM294,180.57c1.91,1.41,15.86,11.9,24.78,22.34,1.25-.36,6.21-2,8.69-6.23l.24-17-22.86-33.07-9.4,2.53Z" fill="#351d66"></path>
  <path d="M359.54,293.61a3.1,3.1,0,0,0-1.69-3.41c-5.22-2.55-18.25-8.89-20.4-9.82a22.26,22.26,0,0,0-5.56-1.62,12.51,12.51,0,0,0-9.33,2.58l-14.45,11.09a19.07,19.07,0,0,0-5,4.56,10.18,10.18,0,0,0,7,16.14,28.87,28.87,0,0,0,5.61,0,.81.81,0,0,1,.8.5c.25.57,1.18,1.37,4.43,1.37,0,0,7.55.82,9-1.81,0,0,4.92-.66,5.08-4.76,0,0,4.27-.33,4.93-3.94,0,0,4.76-1.15,2.63-7.55l-2.17-6.8a.21.21,0,0,1,.28-.26l14.66,6a3.12,3.12,0,0,0,4.23-2.27Z" fill="#f9c7a5"></path>
  <path d="M323.49,315.66a25.92,25.92,0,0,1-2.68-.14q-4.11,0-4.83-1.66c0-.06-.11-.23-.29-.2a28.49,28.49,0,0,1-5.71,0,10.67,10.67,0,0,1-7.31-16.93,19.51,19.51,0,0,1,5.18-4.68L322.25,281a13.1,13.1,0,0,1,9.71-2.69,22.32,22.32,0,0,1,5.69,1.67c2.23,1,16.19,7.76,20.42,9.82a3.62,3.62,0,0,1,2,4h0a3.63,3.63,0,0,1-1.84,2.47,3.59,3.59,0,0,1-3.07.16L341,290.61l2,6.21c.8,2.37.77,4.35-.08,5.88a5,5,0,0,1-2.59,2.21c-.72,3-3.76,3.79-4.89,4-.42,3.58-4.25,4.57-5.25,4.77C329,315.33,325.85,315.66,323.49,315.66Zm-7.77-3a1.27,1.27,0,0,1,1.17.8c.11.25.72,1.07,4,1.07,2.06.22,7.51.36,8.59-1.56l.12-.21.25,0c.18,0,4.51-.65,4.65-4.28l0-.44.45,0c.15,0,3.89-.35,4.47-3.53l.06-.32.31-.08a3.9,3.9,0,0,0,2.28-1.83c.69-1.27.69-3,0-5.08l-2.16-6.8a.7.7,0,0,1,.19-.74.69.69,0,0,1,.75-.13l14.66,6a2.61,2.61,0,0,0,2.13-4.77c-4.22-2.06-18.17-8.85-20.38-9.81a21.6,21.6,0,0,0-5.43-1.59,12.09,12.09,0,0,0-9,2.49l-14.44,11.09a18.79,18.79,0,0,0-4.95,4.46,9.67,9.67,0,0,0,6.62,15.34,27.74,27.74,0,0,0,5.5,0Zm24.74-22.29Z" fill="#351d66"></path>
  <path d="M316.43,314.16a.5.5,0,0,1-.38-.19.49.49,0,0,1,.07-.7l3.94-3.23a.5.5,0,0,1,.7.07.52.52,0,0,1-.07.71L316.75,314A.47.47,0,0,1,316.43,314.16Z" fill="#251860"></path>
  <path d="M329.9,313.72a.49.49,0,0,1-.41-.21L317.18,296.6A.5.5,0,0,1,318,296l12.31,16.91a.5.5,0,0,1-.11.69A.46.46,0,0,1,329.9,313.72Z" fill="#251860"></path>
  <path d="M335,309a.5.5,0,0,1-.42-.24L324.38,292a.5.5,0,0,1,.85-.52l10.18,16.75a.5.5,0,0,1-.17.69A.48.48,0,0,1,335,309Z" fill="#251860"></path>
  <path d="M339.91,305a.5.5,0,0,1-.45-.28L330.1,286a.5.5,0,0,1,.23-.67.49.49,0,0,1,.67.22l9.36,18.71a.51.51,0,0,1-.23.68A.54.54,0,0,1,339.91,305Z" fill="#251860"></path>
  <path d="M340.37,290.67a.5.5,0,0,1-.44-.27l-2.6-5a.5.5,0,1,1,.89-.46l2.6,5a.5.5,0,0,1-.22.67A.46.46,0,0,1,340.37,290.67Z" fill="#251860"></path>
  <path d="M392.12,305.18s-4.95,5.34-9.33.76L376,295.88a13.09,13.09,0,0,1-2-4.78c-1-5.12-.4-14.69,16.77-16.22,0,0,8.53-1.08,21.86,8.6a5,5,0,0,1,2,3.26,15.41,15.41,0,0,1-1,7s-2.86,9.91-6.29,8c0,0-1.81,1.81-3,.14a.14.14,0,0,0-.2,0c-.4.39-1.84,1.65-3.23,1a.14.14,0,0,0-.2.16l2.59,9.78H395Z" fill="#f9c7a5"></path>
  <path d="M404,313.3h-9.38l-2.71-7.24a8.38,8.38,0,0,1-5.14,2.24h0a5.9,5.9,0,0,1-4.31-2l-6.81-10.13a13.32,13.32,0,0,1-2.08-5,12.89,12.89,0,0,1,2-10.33c2.75-3.65,7.87-5.82,15.2-6.47.33-.05,8.85-1,22.2,8.69a5.43,5.43,0,0,1,2.21,3.59,15.87,15.87,0,0,1-1,7.24c-.21.72-2.16,7.24-5,8.4a2.23,2.23,0,0,1-1.7,0,2.86,2.86,0,0,1-2,.75,1.85,1.85,0,0,1-1.19-.59,3.81,3.81,0,0,1-2.83,1Zm-8.68-1h7.39l-2.42-9.15a.62.62,0,0,1,.2-.65.67.67,0,0,1,.69-.09c1.1.51,2.32-.56,2.67-.9a.64.64,0,0,1,.49-.18.63.63,0,0,1,.47.29,1,1,0,0,0,.71.48,2.3,2.3,0,0,0,1.48-.7l.27-.27.33.19a1.28,1.28,0,0,0,1.16.07c2-.83,3.86-5.9,4.4-7.78a15,15,0,0,0,1-6.8,4.39,4.39,0,0,0-1.81-2.92c-13-9.46-21.43-8.52-21.51-8.51-7.05.63-11.93,2.67-14.5,6.08a11.94,11.94,0,0,0-1.84,9.54,12.26,12.26,0,0,0,1.93,4.6l6.76,10.06a4.86,4.86,0,0,0,3.54,1.64h0c2.68,0,5-2.43,5-2.46l.55-.59Zm5.44-9Zm3.79-1.1Zm-.56,0h0Z" fill="#351d66"></path>
  <path d="M392.12,305.68a.49.49,0,0,1-.49-.41c0-.07-1.1-6.33-3.75-9.66a1.75,1.75,0,0,0-1.62-.64,1.5,1.5,0,0,0-1.23.89,1.2,1.2,0,0,0,0,1c.26.6,1.13,1.52,3.86,2.54a.49.49,0,0,1,.29.64.5.5,0,0,1-.64.3c-2.49-.93-3.94-1.94-4.43-3.09a2.21,2.21,0,0,1,0-1.78,2.53,2.53,0,0,1,2-1.47,2.78,2.78,0,0,1,2.53,1c2.81,3.54,3.91,9.85,4,10.12a.51.51,0,0,1-.41.58Z" fill="#251860"></path>
  <path d="M401,303.37a.51.51,0,0,1-.49-.39l-2.19-9.58a5.61,5.61,0,0,0-1.41-2.61l-3-3.17a.5.5,0,0,1,0-.71.51.51,0,0,1,.71,0l3,3.18a6.58,6.58,0,0,1,1.65,3.07l2.2,9.58a.5.5,0,0,1-.38.6Z" fill="#251860"></path>
  <path d="M404.41,302.4h-.05a.5.5,0,0,1-.44-.55L405,291.1a3.19,3.19,0,0,0-.43-2L402,284.66a.5.5,0,0,1,.86-.5l2.63,4.47a4.21,4.21,0,0,1,.55,2.58L404.91,302A.5.5,0,0,1,404.41,302.4Z" fill="#251860"></path>
  <path d="M407.37,302.25a.44.44,0,0,1-.16,0,.51.51,0,0,1-.32-.63l3.12-9.66a5.54,5.54,0,0,0-.6-4.72l-2.08-3.3a.5.5,0,1,1,.84-.54l2.09,3.3a6.57,6.57,0,0,1,.7,5.56l-3.12,9.67A.49.49,0,0,1,407.37,302.25Z" fill="#251860"></path>
  <path d="M363.73,276.21a.48.48,0,0,1-.36-.16.49.49,0,0,1,0-.7,23.11,23.11,0,0,1,26.9-4.64.5.5,0,1,1-.49.87,22.15,22.15,0,0,0-25.71,4.48A.49.49,0,0,1,363.73,276.21Z" fill="#251860"></path>
  <path d="M254.43,373.92a.5.5,0,0,1-.49-.38.51.51,0,0,1,.37-.61c15.74-3.79,20.3-23.49,20.34-23.69a.5.5,0,0,1,.6-.38.49.49,0,0,1,.38.59c-.05.21-4.74,20.51-21.09,24.46Z" fill="#251860"></path>
  <path d="M191.37,45.11V78a2.88,2.88,0,0,0,2.88,2.88h77.26a6.71,6.71,0,0,1,4.36,1.61l3.51,3a1,1,0,0,0,1.72-.8V45.11a2.87,2.87,0,0,0-2.87-2.88h-84A2.88,2.88,0,0,0,191.37,45.11Z" fill="#4458dc" data-secondary="true"></path>
  <path d="M280.05,86.28a1.51,1.51,0,0,1-1-.37l-3.51-3a6.21,6.21,0,0,0-4-1.49H194.25A3.38,3.38,0,0,1,190.87,78V45.11a3.38,3.38,0,0,1,3.38-3.38h84a3.38,3.38,0,0,1,3.37,3.38V84.73a1.54,1.54,0,0,1-.9,1.41A1.49,1.49,0,0,1,280.05,86.28Zm-85.8-43.55a2.38,2.38,0,0,0-2.38,2.38V78a2.38,2.38,0,0,0,2.38,2.38h77.26a7.18,7.18,0,0,1,4.68,1.73l3.51,3a.55.55,0,0,0,.59.08.54.54,0,0,0,.31-.5V45.11a2.38,2.38,0,0,0-2.37-2.38Z" fill="#251860"></path>
  <path d="M222.86,70.3H203.05a.5.5,0,0,1-.5-.5V50a.5.5,0,0,1,.5-.5h19.81a.5.5,0,0,1,.5.5V69.8A.5.5,0,0,1,222.86,70.3Zm-19.31-1h18.81V50.5H203.55Z" fill="#251860"></path>
  <path d="M269.42,53.45H235.71a.5.5,0,0,1-.5-.5.5.5,0,0,1,.5-.5h33.71a.5.5,0,0,1,.5.5A.5.5,0,0,1,269.42,53.45Z" fill="#251860"></path>
  <path d="M269.42,60.82H235.71a.5.5,0,0,1-.5-.5.5.5,0,0,1,.5-.5h33.71a.5.5,0,0,1,.5.5A.5.5,0,0,1,269.42,60.82Z" fill="#251860"></path>
  <path d="M268.79,68.2H251.51a.5.5,0,0,1-.5-.5.5.5,0,0,1,.5-.5h17.28a.5.5,0,0,1,.5.5A.51.51,0,0,1,268.79,68.2Z" fill="#251860"></path>
  <path d="M251.62,97.27H175.45A4.29,4.29,0,0,1,171.16,93V63.9a4.3,4.3,0,0,1,4.29-4.29h12.43a.5.5,0,0,1,0,1H175.45a3.29,3.29,0,0,0-3.29,3.29V93a3.29,3.29,0,0,0,3.29,3.29h76.17a3.82,3.82,0,0,0,3.81-3.82V88.56a.5.5,0,0,1,.5-.5.5.5,0,0,1,.5.5v3.89A4.82,4.82,0,0,1,251.62,97.27Z" fill="#251860"></path>
  <rect x="302.85" y="88.8" width="57.68" height="90.43" rx="28.84" fill="#f9c7a5"></rect>
  <path d="M331.69,179.73a29.38,29.38,0,0,1-29.34-29.34V117.64a29.34,29.34,0,0,1,58.68,0v32.75A29.37,29.37,0,0,1,331.69,179.73Zm0-90.43a28.37,28.37,0,0,0-28.34,28.34v32.75a28.34,28.34,0,0,0,56.68,0V117.64A28.37,28.37,0,0,0,331.69,89.3Z" fill="#351d66"></path>
  <path d="M290.1,126.77S275.61,105.9,295,91.41c0,0,.58-18,38.26-12.47,0,0,34.49-6.37,34.78,20.29,0,0,.49,18-7.47,21.82l-.09-5a23.18,23.18,0,0,0-.82-5.42s-10.32,8.78-28.27,5a25.38,25.38,0,0,0-11.14-.05c-5.65,1.33-12.73,4.86-15.5,14Z" fill="#000000" data-secondary="true"></path>
  <path d="M305.12,130.17l-15.31-2.95-.12-.17c-.15-.21-14.45-21.3,4.86-35.91a12.57,12.57,0,0,1,4.75-8.08c4.44-3.72,13.95-7.54,34-4.62,1.51-.27,18.61-3.08,28.52,5.07,4.42,3.64,6.69,8.92,6.77,15.72,0,.74.4,18.4-7.76,22.28l-.7.33-.1-5.79a24.49,24.49,0,0,0-.6-4.58c-2.49,1.77-12.53,7.93-28.1,4.64a25,25,0,0,0-10.92-.06c-5.4,1.28-12.41,4.69-15.13,13.69Zm-14.72-3.85,14,2.7c3-9.13,10.16-12.62,15.73-13.94a25.92,25.92,0,0,1,11.36,0c17.48,3.69,27.75-4.8,27.85-4.88l.57-.49.23.72A23.25,23.25,0,0,1,361,116l.07,4.19c6.85-4.31,6.49-20.8,6.49-21-.07-6.5-2.23-11.53-6.41-15-9.78-8-27.6-4.87-27.78-4.84h-.17c-19.69-2.88-28.94.78-33.24,4.36s-4.44,7.58-4.44,7.62v.24l-.19.15C277.42,105.17,289.12,124.33,290.4,126.32Z" fill="#251860"></path>
  <path d="M335.31,169.74h-.05c-27.36-3-32.64-22.1-32.69-22.29a.5.5,0,1,1,1-.25c0,.18,5.18,18.66,31.83,21.54a.5.5,0,0,1-.06,1Z" fill="#251860"></path>
  <rect x="333.84" y="166.53" width="11.08" height="4.68" rx="2.04" fill="#854fee" data-primary="true"></rect>
  <path d="M342.88,171.71h-7a2.54,2.54,0,0,1-2.53-2.54v-.6a2.54,2.54,0,0,1,2.53-2.54h7a2.54,2.54,0,0,1,2.54,2.54v.6A2.54,2.54,0,0,1,342.88,171.71Zm-7-4.68a1.53,1.53,0,0,0-1.53,1.54v.6a1.53,1.53,0,0,0,1.53,1.54h7a1.54,1.54,0,0,0,1.54-1.54v-.6a1.54,1.54,0,0,0-1.54-1.54Z" fill="#251860"></path>
  <path d="M347,154.58a.5.5,0,0,1-.12-1c2.13-.53,3.53-1.52,4.15-2.94,1.1-2.49-.36-5.86-1.33-7.64a9.38,9.38,0,0,1-1.09-4.44v-6.85a.5.5,0,0,1,.5-.5.5.5,0,0,1,.5.5v6.85a8.38,8.38,0,0,0,1,4c1.29,2.38,2.57,5.79,1.36,8.53-.75,1.71-2.37,2.89-4.82,3.5Z" fill="#251860"></path>
  <ellipse cx="333.07" cy="133.99" rx="2.11" ry="2.27" fill="#251860"></ellipse>
  <ellipse cx="356.64" cy="135.2" rx="2.11" ry="2.27" fill="#251860"></ellipse>
  <path d="M346.18,162.15c-13.41,0-15.9-7.59-16-7.92a.48.48,0,0,1,.33-.62.49.49,0,0,1,.62.32c.1.31,2.52,7.51,15.83,7.21a.49.49,0,0,1,.51.49.51.51,0,0,1-.49.51Z" fill="#251860"></path>
  <circle cx="296.35" cy="135.03" r="14.06" fill="#854fee" data-primary="true"></circle>
  <path d="M296.35,149.58A14.56,14.56,0,1,1,310.91,135,14.57,14.57,0,0,1,296.35,149.58Zm0-28.11A13.56,13.56,0,1,0,309.91,135,13.57,13.57,0,0,0,296.35,121.47Z" fill="#251860"></path>
  <g opacity="0.2">
    <circle cx="294.34" cy="135.03" r="9.11"></circle>
  </g>
  <path d="M281.87,136s1.73,12.07,13.06,12.81l-1.48,32S318,198.07,325.56,213a.12.12,0,0,1-.16.15c-4.26-2.07-52-25.56-64.38-43.07a7.34,7.34,0,0,1-.63-7.22C262.85,157.32,269,146.28,281.87,136Z" fill="#000" data-primary="true"></path>
  <path d="M325.46,213.68a.67.67,0,0,1-.28-.06c-5.3-2.58-52.19-25.72-64.57-43.23a7.92,7.92,0,0,1-.68-7.72c2.52-5.67,8.68-16.74,21.63-27.07l.68-.54.13.86c.07.48,1.81,11.68,12.59,12.38l.49,0,0,.49L294,180.56c2.49,1.79,24.9,18.11,32.05,32.23a.63.63,0,0,1-.12.71A.58.58,0,0,1,325.46,213.68Zm-.35-.44h0Zm.51-.52ZM281.55,136.9c-12.35,10-18.26,20.68-20.71,26.18a6.89,6.89,0,0,0,.59,6.73c11.63,16.46,54.42,38.1,63.13,42.39-8-14.43-31.16-30.81-31.4-31l-.22-.16,1.46-31.8C285,148.36,282.2,139.66,281.55,136.9Z" fill="#808080"></path>
  <path d="M293.45,180.81l-16.38-12.73a12.78,12.78,0,0,1-4.37-6c-1.5-4.6-.95-12,10.9-20.64,0,0,3.45,7.14,11.33,7.39Z" fill="#251860"></path>
  <polygon points="293.45 180.81 293.69 172.93 282.85 172.07 293.45 180.81" fill="#fff"></polygon>
  <path d="M293.92,181.85l-12.61-10.4,12.9,1Zm-9.53-9.15,8.59,7.08.2-6.39Z" fill="#251860"></path>
  <path d="M312.18,268.49a.51.51,0,0,1-.5-.42,40.37,40.37,0,0,1-.32-8.3,55.64,55.64,0,0,1,2.94-14.48c7.94-23.64-1.34-42.31-2.37-43.15a.45.45,0,0,1-.27-.61.56.56,0,0,1,.68-.3c.15.06.51.18,1.44,2s9.16,19.46,1.47,42.35a54.9,54.9,0,0,0-2.89,14.22,39.62,39.62,0,0,0,.31,8.08.49.49,0,0,1-.41.57Z" fill="#251860"></path>
  <path d="M347.91,263.28a.5.5,0,0,1-.36-.14c-8.37-8.26-10.36-25.43-10.77-30.5a20.73,20.73,0,0,0-.34-2.42c-4.37-21.86-8.83-28-8.87-28a.5.5,0,0,1,.1-.7.48.48,0,0,1,.69.1c.19.24,4.63,6.26,9.06,28.42a20.71,20.71,0,0,1,.36,2.54c.4,5,2.35,21.85,10.48,29.87a.5.5,0,0,1,0,.71A.54.54,0,0,1,347.91,263.28Z" fill="#251860"></path>
  <rect x="309.37" y="265.54" width="5.25" height="8.77" rx="2.58" fill="#854fee" data-primary="true"></rect>
  <path d="M312,274.8H312a3.09,3.09,0,0,1-3.09-3.08v-3.6a3.13,3.13,0,0,1,6.26,0v3.6A3.09,3.09,0,0,1,312,274.8Zm0-8.76a2.11,2.11,0,0,0-2.17,2.08v3.6A2.09,2.09,0,0,0,312,273.8H312a2.09,2.09,0,0,0,2.09-2.08v-3.6A2.09,2.09,0,0,0,312,266Z" fill="#251860"></path>
  <rect x="345.77" y="259.51" width="5.25" height="8.77" rx="2.58" transform="matrix(0.82, -0.57, 0.57, 0.82, -88.18, 243.42)" fill="#854fee" data-primary="true"></rect>
  <path d="M349.38,268.49a3.07,3.07,0,0,1-2.54-1.34l-2-3a3.08,3.08,0,0,1,.8-4.29,3.14,3.14,0,0,1,2.38-.53,3.1,3.1,0,0,1,2,1.28l2,3a3.09,3.09,0,0,1-.79,4.29l-.07.05A3.11,3.11,0,0,1,349.38,268.49Zm-2-8.19a2.06,2.06,0,0,0-1.17.37,2.11,2.11,0,0,0-.61,2.95l2,3a2.09,2.09,0,0,0,2.9.54l.07,0a2.09,2.09,0,0,0,.54-2.9l-2-3a2.05,2.05,0,0,0-1.33-.87A2.58,2.58,0,0,0,347.41,260.3Z" fill="#251860"></path>
  <path d="M298.46,612.41a.49.49,0,0,1-.43-.24.49.49,0,0,1,.17-.69c.17-.09,16.68-9.66,26.42.08a.5.5,0,0,1,0,.71.5.5,0,0,1-.7,0c-9.19-9.19-25.05,0-25.21.07A.47.47,0,0,1,298.46,612.41Z" fill="#fff"></path>
  <path d="M298.87,621.16a.5.5,0,0,1-.25-.93c.16-.1,16.68-9.66,26.42.07a.51.51,0,0,1,0,.71.5.5,0,0,1-.71,0c-9.2-9.2-25,0-25.2.08A.59.59,0,0,1,298.87,621.16Z" fill="#fff"></path>
  <polygon points="310.03 330.06 310.03 640.66 321.94 640.66 331.98 386.6 442.83 386.6 453.24 639.91 463.66 639.91 463.66 386.97 463.66 329.32 310.03 330.06" fill="#aac8f9"></polygon>
  <path d="M322.42,641.16H309.53V329.56h.5l154.13-.75v311.6h-11.4l0-.48L442.35,387.1H332.46Zm-11.89-1h10.93l10-254.06H443.31l0,.48,10.39,252.83h9.44V329.82l-152.63.74Z" fill="#251860"></path>
  <polygon points="331.98 386.6 325.29 386.6 317.47 640.66 321.94 640.66 331.98 386.6" fill="#d2e1f9"></polygon>
  <path d="M322.42,641.16H317v-.52L324.8,386.1h7.7Zm-4.43-1h3.47l10-253.06h-5.69Z" fill="#251860"></path>
  <polygon points="463.66 386.97 454.36 386.97 459.19 639.91 463.66 639.91 463.66 386.97" fill="#d2e1f9"></polygon>
  <path d="M464.16,640.41H458.7v-.49l-4.84-253.45h10.31Zm-4.48-1h3.48V387.47h-8.29Z" fill="#251860"></path>
  <rect x="295.91" y="319.21" width="168.69" height="11.08" rx="4.82" fill="#aac8f9"></rect>
  <path d="M459.78,330.79h-159a5.33,5.33,0,0,1-5.32-5.32V324a5.33,5.33,0,0,1,5.32-5.32h159A5.33,5.33,0,0,1,465.1,324v1.44A5.33,5.33,0,0,1,459.78,330.79Zm-159-11.08a4.33,4.33,0,0,0-4.32,4.32v1.44a4.33,4.33,0,0,0,4.32,4.32h159a4.33,4.33,0,0,0,4.32-4.32V324a4.33,4.33,0,0,0-4.32-4.32Z" fill="#251860"></path>
  <rect x="449.49" y="318.8" width="247.09" height="11.08" rx="4.82" fill="#d2e1f9"></rect>
  <path d="M691.76,330.38H454.31a5.32,5.32,0,0,1-5.32-5.32v-1.44a5.33,5.33,0,0,1,5.32-5.32H691.76a5.32,5.32,0,0,1,5.32,5.32v1.44A5.32,5.32,0,0,1,691.76,330.38ZM454.31,319.3a4.33,4.33,0,0,0-4.32,4.32v1.44a4.33,4.33,0,0,0,4.32,4.32H691.76a4.32,4.32,0,0,0,4.32-4.32v-1.44a4.32,4.32,0,0,0-4.32-4.32Z" fill="#251860"></path>
  <rect x="497.97" y="528.79" width="95.77" height="13.27" fill="#aac8f9"></rect>
  <path d="M594.24,542.56H497.47V528.29h96.77Zm-95.77-1h94.77V529.29H498.47Z" fill="#251860"></path>
  <rect x="593.27" y="528.79" width="177.31" height="13.27" fill="#d2e1f9"></rect>
  <path d="M771.08,542.56H592.77V528.29H771.08Zm-177.31-1H770.08V529.29H593.77Z" fill="#251860"></path>
  <path d="M218.54,70.24H207.36a.51.51,0,0,1-.5-.5V65.8a6,6,0,0,1,6-6H213a6,6,0,0,1,6,6v3.94A.5.5,0,0,1,218.54,70.24Zm-10.68-1H218V65.8a5,5,0,0,0-5-5h-.18a5,5,0,0,0-5,5Z" fill="#251860"></path>
  <path d="M213,60.66a4.28,4.28,0,1,1,4.28-4.28A4.28,4.28,0,0,1,213,60.66Zm0-7.55a3.28,3.28,0,1,0,3.28,3.27A3.28,3.28,0,0,0,213,53.11Z" fill="#251860"></path>
  <path d="M162.06,471.52s-1.65-37.8,2.5-56.5a18.92,18.92,0,0,1,4.34-8.49c8.45-9.51,34.73-38.54,57-57.25,0,0-20.9-4.36-40.65,7.55V369.6l-4.35-10.16s-24.39,14.52-22.07,54.3L160,452.07Z" fill="#4458dc" data-secondary="true"></path>
  <path d="M161.57,471.57l-2-19.45-1.16-38.37c-2.31-39.61,22.06-54.59,22.31-54.74l.49-.29,3.62,8.45V356.55l.24-.15c19.69-11.87,40.8-7.65,41-7.61l1,.21-.79.66c-22.47,18.85-49.3,48.55-57,57.21a18.46,18.46,0,0,0-4.22,8.26c-4.09,18.42-2.5,56-2.49,56.37Zm19.14-111.38c-3.39,2.32-23.44,17.63-21.34,53.52l1.16,38.34.74,7.09c-.13-12.76.18-32.39,2.8-44.23a19.58,19.58,0,0,1,4.45-8.71c7.61-8.56,33.93-37.69,56.27-56.61-4.44-.66-22.21-2.48-39,7.52V372Z" fill="#251860"></path>
  <path d="M157.55,477.75l0-3.44a16.62,16.62,0,0,0-5-12L95.18,405.84s27.62-3.48,40.76,7.51l.26,15,4.56-11.79s24.67,10.45,22.52,61.12Z" fill="#4458dc" data-secondary="true"></path>
  <path d="M157,478.26l0-3.95a16.21,16.21,0,0,0-4.81-11.68L94.1,405.48l1-.13c1.14-.15,28-3.39,41.14,7.62l.17.14.23,12.69,3.82-9.9.48.21c.25.1,25,11.17,22.82,61.61l0,.47Zm-60.75-72L153,461.92a17.23,17.23,0,0,1,5.11,12.4l0,2.93,4.75-.05c1.78-45.44-18.42-58.16-21.77-59.94l-5.28,13.67-.31-17.34C124,404.22,101.41,405.75,96.29,406.23Z" fill="#251860"></path>
  <path d="M171.06,477.65,174.2,452a8.75,8.75,0,0,1,2.28-4.89c8.23-8.8,40.71-43.26,59.62-58.89,0,0-21.77-2-41.23,7.84l-.58,13.64-4.35-10.45s-21.2,11.91-21.78,53.43l0,25Z" fill="#4458dc" data-secondary="true"></path>
  <path d="M167.68,478.17l0-25.52c.58-41.34,21.82-53.74,22-53.86l.49-.28,3.71,8.89.5-11.69.26-.13c19.36-9.82,41.28-7.91,41.5-7.89l1.2.11-.93.77c-18.68,15.44-50.32,48.95-59.57,58.86A8.11,8.11,0,0,0,174.7,452l-3.19,26.11Zm22-78.21c-3.13,2.1-20.52,15.46-21,52.69l0,24.51h1.94l3.09-25.24a9.14,9.14,0,0,1,2.41-5.17c9.1-9.74,39.87-42.33,58.7-58.13-4.85-.24-23-.49-39.46,7.73l-.66,15.6Z" fill="#251860"></path>
  <polygon points="129.11 537.57 165.71 546.23 202.42 537.57 202.42 533.99 129.29 533.99 129.11 537.57" fill="#251860"></polygon>
  <path d="M203.44,503a37.9,37.9,0,0,1-31.19,37.3h0a37.9,37.9,0,0,1-35.05-62.44l41.05-.28,15.3-.11A37.73,37.73,0,0,1,203.44,503Z" fill="#854fee" data-primary="true"></path>
  <path d="M165.54,541.41a38.39,38.39,0,0,1-28.72-63.86l.14-.17h.23l56.57-.4.15.17a38.39,38.39,0,0,1-21.57,63.66A38.72,38.72,0,0,1,165.54,541.41Zm-28.12-63a37.4,37.4,0,0,0,28.12,62,38.4,38.4,0,0,0,6.61-.58A37.39,37.39,0,0,0,193.32,478Z" fill="#251860"></path>
  <rect x="125.11" y="519.96" width="8.06" height="119.47" rx="3.97" fill="#251860"></rect>
  <rect x="161.23" y="519.96" width="8.06" height="119.47" rx="3.97" fill="#251860"></rect>
  <rect x="197.94" y="519.96" width="8.06" height="119.47" rx="3.97" fill="#251860"></rect>
  <g opacity="0.2">
    <path d="M203.44,503a37.9,37.9,0,0,1-31.19,37.3c25.89-25,7.21-60.48,6-62.72l15.3-.11A37.73,37.73,0,0,1,203.44,503Z"></path>
  </g>
</svg>