<?xml version="1.0" encoding="UTF-8"?>
<!DOCTYPE svg PUBLIC "-//W3C//DTD SVG 1.1//EN" "http://www.w3.org/Graphics/SVG/1.1/DTD/svg11.dtd">
<svg xmlns="http://www.w3.org/2000/svg" version="1.1" width="289px" height="76px" style="shape-rendering:geometricPrecision; text-rendering:geometricPrecision; image-rendering:optimizeQuality; fill-rule:evenodd; clip-rule:evenodd" xmlns:xlink="http://www.w3.org/1999/xlink">
<g><path style="opacity:0.875" fill="#b468ff" d="M 13.5,-0.5 C 15.8333,-0.5 18.1667,-0.5 20.5,-0.5C 20.7852,1.28801 20.4519,2.95467 19.5,4.5C 17.5658,4.90054 16.0658,5.90054 15,7.5C 14.6667,15.1667 14.3333,22.8333 14,30.5C 12.6378,33.2356 10.8044,35.5689 8.5,37.5C 10.524,39.6898 12.3573,42.0232 14,44.5C 14.3333,52.1667 14.6667,59.8333 15,67.5C 16.0658,69.0995 17.5658,70.0995 19.5,70.5C 20.4519,72.0453 20.7852,73.712 20.5,75.5C 18.1667,75.5 15.8333,75.5 13.5,75.5C 11.0985,74.2542 9.59854,72.2542 9,69.5C 8.66667,62.1667 8.33333,54.8333 8,47.5C 5.953,43.9517 3.11967,41.285 -0.5,39.5C -0.5,38.1667 -0.5,36.8333 -0.5,35.5C 3.11967,33.715 5.953,31.0483 8,27.5C 8.33333,20.1667 8.66667,12.8333 9,5.5C 9.59854,2.74583 11.0985,0.745833 13.5,-0.5 Z"/></g>
<g><path style="opacity:0.871" fill="#b468ff" d="M 38.5,-0.5 C 40.8333,-0.5 43.1667,-0.5 45.5,-0.5C 47.6959,0.854084 49.1959,2.85408 50,5.5C 50.3333,13.1667 50.6667,20.8333 51,28.5C 53.0232,31.5203 55.6898,33.8536 59,35.5C 59.6667,36.8333 59.6667,38.1667 59,39.5C 56.0117,41.4897 53.3451,43.8231 51,46.5C 50.6667,54.1667 50.3333,61.8333 50,69.5C 49.1959,72.1459 47.6959,74.1459 45.5,75.5C 43.1667,75.5 40.8333,75.5 38.5,75.5C 37.6371,71.8384 38.9704,69.6718 42.5,69C 43.1258,68.2496 43.6258,67.4162 44,66.5C 44.3333,59.1667 44.6667,51.8333 45,44.5C 46.0014,41.8268 47.5014,39.4935 49.5,37.5C 47.5014,35.5065 46.0014,33.1732 45,30.5C 44.6667,23.1667 44.3333,15.8333 44,8.5C 43.0644,6.29151 41.3977,4.95818 39,4.5C 38.5065,2.86586 38.3398,1.19919 38.5,-0.5 Z"/></g>
<g><path style="opacity:0.785" fill="#b568fe" d="M 82.5,25.5 C 85.8333,25.5 89.1667,25.5 92.5,25.5C 92.5,27.1667 92.5,28.8333 92.5,30.5C 88.6924,30.1632 85.0257,30.6632 81.5,32C 78.3851,36.6438 79.0517,40.6438 83.5,44C 86.4816,44.498 89.4816,44.6646 92.5,44.5C 92.5,46.1667 92.5,47.8333 92.5,49.5C 79.1032,51.2681 73.2699,45.6015 75,32.5C 76.7424,29.2543 79.2424,26.921 82.5,25.5 Z"/></g>
<g><path style="opacity:0.756" fill="#b468ff" d="M 99.5,25.5 C 101.167,25.5 102.833,25.5 104.5,25.5C 104.5,31.8333 104.5,38.1667 104.5,44.5C 108.5,44.5 112.5,44.5 116.5,44.5C 116.5,46.1667 116.5,47.8333 116.5,49.5C 110.833,49.5 105.167,49.5 99.5,49.5C 99.5,41.5 99.5,33.5 99.5,25.5 Z"/></g>
<g><path style="opacity:0.735" fill="#b469ff" d="M 123.5,25.5 C 129.5,25.5 135.5,25.5 141.5,25.5C 141.5,27.1667 141.5,28.8333 141.5,30.5C 135.5,30.5 129.5,30.5 123.5,30.5C 123.5,28.8333 123.5,27.1667 123.5,25.5 Z"/></g>
<g><path style="opacity:0.785" fill="#b468fe" d="M 146.5,25.5 C 151.179,25.3342 155.845,25.5008 160.5,26C 165.224,28.4353 166.724,32.2686 165,37.5C 163.833,38.6667 162.667,39.8333 161.5,41C 163.291,43.414 164.957,45.914 166.5,48.5C 164.5,49.8333 162.5,49.8333 160.5,48.5C 158.712,46.4235 157.046,44.2568 155.5,42C 154.207,41.51 152.873,41.3433 151.5,41.5C 151.5,44.1667 151.5,46.8333 151.5,49.5C 149.833,49.5 148.167,49.5 146.5,49.5C 146.5,45.1667 146.5,40.8333 146.5,36.5C 150.846,36.6657 155.179,36.499 159.5,36C 160.833,34.3333 160.833,32.6667 159.5,31C 155.179,30.501 150.846,30.3343 146.5,30.5C 146.5,28.8333 146.5,27.1667 146.5,25.5 Z"/></g>
<g><path style="opacity:0.765" fill="#b469ff" d="M 178.5,25.5 C 180.167,25.5 181.833,25.5 183.5,25.5C 183.5,33.5 183.5,41.5 183.5,49.5C 181.833,49.5 180.167,49.5 178.5,49.5C 178.5,41.5 178.5,33.5 178.5,25.5 Z"/></g>
<g><path style="opacity:0.802" fill="#b468fe" d="M 204.5,25.5 C 207.833,25.5 211.167,25.5 214.5,25.5C 214.5,27.1667 214.5,28.8333 214.5,30.5C 211.482,30.3354 208.482,30.502 205.5,31C 202.528,32.1414 200.861,34.3081 200.5,37.5C 198.955,38.4519 197.288,38.7852 195.5,38.5C 195.812,32.1828 198.812,27.8494 204.5,25.5 Z"/></g>
<g><path style="opacity:0.706" fill="#b368ff" d="M 219.5,25.5 C 226.167,25.5 232.833,25.5 239.5,25.5C 239.5,27.1667 239.5,28.8333 239.5,30.5C 232.833,30.5 226.167,30.5 219.5,30.5C 219.5,28.8333 219.5,27.1667 219.5,25.5 Z"/></g>
<g><path style="opacity:0.831" fill="#b369ff" d="M 255.5,25.5 C 265.327,28.4982 268.161,34.8315 264,44.5C 261.93,46.7868 259.43,48.4534 256.5,49.5C 255.15,46.4535 255.983,44.1202 259,42.5C 259.923,40.9656 260.423,39.299 260.5,37.5C 258.718,33.4391 257.052,29.4391 255.5,25.5 Z"/></g>
<g><path style="opacity:0.848" fill="#b568fe" d="M 288.5,25.5 C 288.5,33.5 288.5,41.5 288.5,49.5C 286.278,49.822 284.444,49.1554 283,47.5C 278.167,40.5 273.333,33.5 268.5,26.5C 270.074,25.3691 271.741,25.2025 273.5,26C 276.788,30.0768 279.955,34.2435 283,38.5C 283.499,34.1794 283.666,29.8461 283.5,25.5C 285.167,25.5 286.833,25.5 288.5,25.5 Z"/></g>
<g><path style="opacity:0.826" fill="#b468fe" d="M 250.5,25.5 C 251.649,25.7911 252.316,26.6244 252.5,28C 252.001,30.0046 250.834,31.5046 249,32.5C 246.384,37.502 247.384,41.502 252,44.5C 252.798,46.2588 252.631,47.9255 251.5,49.5C 242.579,45.8197 240.079,39.4864 244,30.5C 245.805,28.1743 247.972,26.5077 250.5,25.5 Z"/></g>
<g><path style="opacity:0.892" fill="#b568fe" d="M 268.5,30.5 C 269.885,31.5736 271.051,32.9069 272,34.5C 272.499,39.4889 272.666,44.4889 272.5,49.5C 271.167,49.5 269.833,49.5 268.5,49.5C 268.5,43.1667 268.5,36.8333 268.5,30.5 Z"/></g>
<g><path style="opacity:0.92" fill="#b369ff" d="M 227.5,33.5 C 229.167,33.5 230.833,33.5 232.5,33.5C 232.5,38.8333 232.5,44.1667 232.5,49.5C 230.833,49.5 229.167,49.5 227.5,49.5C 227.5,44.1667 227.5,38.8333 227.5,33.5 Z"/></g>
<g><path style="opacity:0.844" fill="#b469ff" d="M 123.5,35.5 C 128.833,35.5 134.167,35.5 139.5,35.5C 139.5,36.8333 139.5,38.1667 139.5,39.5C 134.167,39.5 128.833,39.5 123.5,39.5C 123.5,38.1667 123.5,36.8333 123.5,35.5 Z"/></g>
<g><path style="opacity:0.772" fill="#b469ff" d="M 209.5,36.5 C 211.167,36.5 212.833,36.5 214.5,36.5C 214.789,43.1046 211.789,47.2713 205.5,49C 202.183,49.4983 198.85,49.665 195.5,49.5C 195.5,47.8333 195.5,46.1667 195.5,44.5C 200.849,45.5386 205.349,44.2053 209,40.5C 209.49,39.2068 209.657,37.8734 209.5,36.5 Z"/></g>
<g><path style="opacity:0.722" fill="#b369ff" d="M 123.5,44.5 C 129.167,44.5 134.833,44.5 140.5,44.5C 140.5,46.1667 140.5,47.8333 140.5,49.5C 134.833,49.5 129.167,49.5 123.5,49.5C 123.5,47.8333 123.5,46.1667 123.5,44.5 Z"/></g>
</svg>
